<?xml version="1.0" standalone="no"?>
<!DOCTYPE svg PUBLIC "-//W3C//DTD SVG 20010904//EN"
 "http://www.w3.org/TR/2001/REC-SVG-20010904/DTD/svg10.dtd">
<svg version="1.0" xmlns="http://www.w3.org/2000/svg"
 width="1000.000000pt" height="1000.000000pt" viewBox="0 0 16 16"
 preserveAspectRatio="xMidYMid meet">
<metadata>
Created by potrace 1.16, written by Peter Selinger 2001-2019
</metadata>
<g transform="translate(0.000000,1000.000000) scale(0.100000,-0.100000)"
fill="#000000" stroke="none">
<path d="M565 9721 c-86 -21 -165 -86 -206 -169 l-24 -47 0 -4515 0 -4515 24
-47 c30 -61 88 -119 149 -149 l47 -24 1305 0 1305 0 47 24 c61 30 119 88 149
149 l24 47 0 4515 0 4515 -24 47 c-30 61 -88 119 -149 149 l-47 24 -1285 2
c-707 0 -1298 -2 -1315 -6z"/>
<path d="M3807 9629 c-94 -22 -179 -96 -213 -185 -18 -48 -19 -102 -19 -1834
l0 -1785 24 -52 c29 -65 101 -134 166 -159 49 -19 115 -19 2880 -19 2765 0
2831 0 2880 19 65 25 137 94 166 159 l24 52 0 1785 c0 1735 -1 1786 -19 1835
-25 65 -94 137 -159 166 l-52 24 -2820 2 c-1623 0 -2836 -3 -2858 -8z"/>
<path d="M3865 5401 c-89 -22 -164 -83 -205 -166 l-25 -50 0 -2325 0 -2325 25
-50 c31 -63 82 -114 145 -145 l50 -25 1335 0 1335 0 50 25 c63 31 114 82 145
145 l25 50 0 2325 0 2325 -25 50 c-31 63 -82 114 -145 145 l-50 25 -1315 2
c-723 0 -1328 -2 -1345 -6z"/>
<path d="M7263 4042 c-72 -25 -119 -59 -154 -112 -63 -94 -59 9 -57 -1735 l3
-1590 26 -55 c33 -70 79 -116 149 -149 l55 -26 1070 0 1070 0 55 26 c70 33
116 79 149 149 l26 55 0 1610 0 1610 -26 55 c-33 70 -79 116 -149 149 l-55 26
-1055 2 c-993 2 -1058 1 -1107 -15z"/>
</g>
</svg>
